HIERARCHY
ROOT Hips
{
	OFFSET 0.000000 100.481300 0.000000
	CHANNELS 6 Xposition Yposition Zposition Xrotation Yrotation Zrotation 
	JOINT Spine
	{
		OFFSET -0.279200 12.230698 -2.892100
		CHANNELS 3 Xrotation Yrotation Zrotation
		JOINT Spine1
		{
			OFFSET -0.232667 10.192268 -1.242267
			CHANNELS 3 Xrotation Yrotation Zrotation
			JOINT Spine1_split
			{
				OFFSET -0.232667 10.192268 -1.242267
				CHANNELS 3 Xrotation Yrotation Zrotation
				JOINT Spine2
				{
					OFFSET -0.232667 10.192268 -1.242267
					CHANNELS 3 Xrotation Yrotation Zrotation
					JOINT Neck
					{
						OFFSET -0.418800 17.814194 8.416900
						CHANNELS 3 Xrotation Yrotation Zrotation
						JOINT Head
						{
							OFFSET 0.000000 7.031097 3.806800
							CHANNELS 3 Xrotation Yrotation Zrotation
							JOINT HeadTop_End
							{
								OFFSET 0.000000 24.646606 12.978600
								CHANNELS 3 Xrotation Yrotation Zrotation
								End Site
								{
									OFFSET 0.000000 0.000000 0.000000
								}
							}
						}
					}
					JOINT LeftShoulder
					{
						OFFSET 8.476499 7.247704 -3.868750
						CHANNELS 3 Xrotation Yrotation Zrotation
						JOINT LeftShoulder_split
						{
							OFFSET 8.476499 7.247704 -3.868750
							CHANNELS 3 Xrotation Yrotation Zrotation
							JOINT LeftArm
							{
								OFFSET 9.308998 -2.777710 0.208600
								CHANNELS 3 Xrotation Yrotation Zrotation
								JOINT LeftForeArm
								{
									OFFSET 29.972298 0.000000 0.000000
									CHANNELS 3 Xrotation Yrotation Zrotation
									JOINT LeftHand
									{
										OFFSET 26.026505 0.000000 0.000000
										CHANNELS 3 Xrotation Yrotation Zrotation
										JOINT LeftHandThumb1
										{
											OFFSET 12.240501 -7.147949 9.207150
											CHANNELS 3 Xrotation Yrotation Zrotation
											JOINT LeftHandThumb2
											{
												OFFSET 4.138618 -2.389435 2.389433
												CHANNELS 3 Xrotation Yrotation Zrotation
												JOINT LeftHandThumb3
												{
													OFFSET 2.726913 -1.574387 1.574386
													CHANNELS 3 Xrotation Yrotation Zrotation
													JOINT LeftHandThumb4
													{
														OFFSET 3.941010 -2.275345 2.275342
														CHANNELS 3 Xrotation Yrotation Zrotation
														End Site
														{
															OFFSET 0.000000 0.000000 0.000000
														}
													}
												}
											}
										}
										JOINT LeftHandIndex1
										{
											OFFSET 24.424698 -1.985611 5.953459
											CHANNELS 3 Xrotation Yrotation Zrotation
											JOINT LeftHandIndex2
											{
												OFFSET 6.426697 0.000000 0.000000
												CHANNELS 3 Xrotation Yrotation Zrotation
												JOINT LeftHandIndex3
												{
													OFFSET 5.337898 0.000000 0.000000
													CHANNELS 3 Xrotation Yrotation Zrotation
													JOINT LeftHandIndex4
													{
														OFFSET 4.409401 0.000000 0.000000
														CHANNELS 3 Xrotation Yrotation Zrotation
														End Site
														{
															OFFSET 0.000000 0.000000 0.000000
														}
													}
												}
											}
										}
										JOINT LeftHandMiddle1
										{
											OFFSET 23.810104 0.000000 0.000000
											CHANNELS 3 Xrotation Yrotation Zrotation
											JOINT LeftHandMiddle2
											{
												OFFSET 7.176498 0.000000 0.000000
												CHANNELS 3 Xrotation Yrotation Zrotation
												JOINT LeftHandMiddle3
												{
													OFFSET 6.774902 0.000000 0.000000
													CHANNELS 3 Xrotation Yrotation Zrotation
													JOINT LeftHandMiddle4
													{
														OFFSET 5.403328 0.000000 0.000000
														CHANNELS 3 Xrotation Yrotation Zrotation
														End Site
														{
															OFFSET 0.000000 0.000000 0.000000
														}
													}
												}
											}
										}
										JOINT LeftHandRing1
										{
											OFFSET 22.908401 -0.839279 -6.020567
											CHANNELS 3 Xrotation Yrotation Zrotation
											JOINT LeftHandRing2
											{
												OFFSET 6.337502 0.000000 0.000000
												CHANNELS 3 Xrotation Yrotation Zrotation
												JOINT LeftHandRing3
												{
													OFFSET 5.779297 0.000000 0.000000
													CHANNELS 3 Xrotation Yrotation Zrotation
													JOINT LeftHandRing4
													{
														OFFSET 4.965698 0.000000 0.000000
														CHANNELS 3 Xrotation Yrotation Zrotation
														End Site
														{
															OFFSET 0.000000 0.000000 0.000000
														}
													}
												}
											}
										}
										JOINT LeftHandPinky1
										{
											OFFSET 20.037003 -1.530319 -10.950146
											CHANNELS 3 Xrotation Yrotation Zrotation
											JOINT LeftHandPinky2
											{
												OFFSET 5.254700 0.000000 0.000000
												CHANNELS 3 Xrotation Yrotation Zrotation
												JOINT LeftHandPinky3
												{
													OFFSET 4.810204 0.000000 0.000000
													CHANNELS 3 Xrotation Yrotation Zrotation
													JOINT LeftHandPinky4
													{
														OFFSET 3.647202 0.000000 0.000000
														CHANNELS 3 Xrotation Yrotation Zrotation
														End Site
														{
															OFFSET 0.000000 0.000000 0.000000
														}
													}
												}
											}
										}
									}
								}
							}
						}
					}
					JOINT RightShoulder
					{
						OFFSET -7.570500 7.247704 -3.868750
						CHANNELS 3 Xrotation Yrotation Zrotation
						JOINT RightShoulder_split
						{
							OFFSET -7.570500 7.247704 -3.868750
							CHANNELS 3 Xrotation Yrotation Zrotation
							JOINT RightArm
							{
								OFFSET -9.308998 -2.777710 0.208500
								CHANNELS 3 Xrotation Yrotation Zrotation
								JOINT RightForeArm
								{
									OFFSET -29.972300 0.000000 0.000000
									CHANNELS 3 Xrotation Yrotation Zrotation
									JOINT RightHand
									{
										OFFSET -26.026505 0.000000 0.000000
										CHANNELS 3 Xrotation Yrotation Zrotation
										JOINT RightHandThumb1
										{
											OFFSET -12.240601 -7.148026 9.207092
											CHANNELS 3 Xrotation Yrotation Zrotation
											JOINT RightHandThumb2
											{
												OFFSET -4.138618 -2.389435 2.389433
												CHANNELS 3 Xrotation Yrotation Zrotation
												JOINT RightHandThumb3
												{
													OFFSET -2.726974 -1.574417 1.574421
													CHANNELS 3 Xrotation Yrotation Zrotation
													JOINT RightHandThumb4
													{
														OFFSET -3.941010 -2.275345 2.275343
														CHANNELS 3 Xrotation Yrotation Zrotation
														End Site
														{
															OFFSET 0.000000 0.000000 0.000000
														}
													}
												}
											}
										}
										JOINT RightHandIndex1
										{
											OFFSET -24.424698 -1.985657 5.953444
											CHANNELS 3 Xrotation Yrotation Zrotation
											JOINT RightHandIndex2
											{
												OFFSET -6.426697 0.000000 0.000000
												CHANNELS 3 Xrotation Yrotation Zrotation
												JOINT RightHandIndex3
												{
													OFFSET -5.337898 0.000000 0.000000
													CHANNELS 3 Xrotation Yrotation Zrotation
													JOINT RightHandIndex4
													{
														OFFSET -4.409401 0.000000 0.000000
														CHANNELS 3 Xrotation Yrotation Zrotation
														End Site
														{
															OFFSET 0.000000 0.000000 0.000000
														}
													}
												}
											}
										}
										JOINT RightHandMiddle1
										{
											OFFSET -23.810097 0.000000 0.000000
											CHANNELS 3 Xrotation Yrotation Zrotation
											JOINT RightHandMiddle2
											{
												OFFSET -7.176498 0.000000 0.000000
												CHANNELS 3 Xrotation Yrotation Zrotation
												JOINT RightHandMiddle3
												{
													OFFSET -6.774902 0.000000 0.000000
													CHANNELS 3 Xrotation Yrotation Zrotation
													JOINT RightHandMiddle4
													{
														OFFSET -5.403328 0.000000 0.000000
														CHANNELS 3 Xrotation Yrotation Zrotation
														End Site
														{
															OFFSET 0.000000 0.000000 0.000000
														}
													}
												}
											}
										}
										JOINT RightHandRing1
										{
											OFFSET -22.908302 -0.839325 -6.020576
											CHANNELS 3 Xrotation Yrotation Zrotation
											JOINT RightHandRing2
											{
												OFFSET -6.337502 0.000000 0.000000
												CHANNELS 3 Xrotation Yrotation Zrotation
												JOINT RightHandRing3
												{
													OFFSET -5.779297 0.000000 0.000000
													CHANNELS 3 Xrotation Yrotation Zrotation
													JOINT RightHandRing4
													{
														OFFSET -4.965698 0.000000 0.000000
														CHANNELS 3 Xrotation Yrotation Zrotation
														End Site
														{
															OFFSET 0.000000 0.000000 0.000000
														}
													}
												}
											}
										}
										JOINT RightHandPinky1
										{
											OFFSET -20.037003 -1.530334 -10.950259
											CHANNELS 3 Xrotation Yrotation Zrotation
											JOINT RightHandPinky2
											{
												OFFSET -5.254700 0.000000 0.000000
												CHANNELS 3 Xrotation Yrotation Zrotation
												JOINT RightHandPinky3
												{
													OFFSET -4.810204 0.000000 0.000000
													CHANNELS 3 Xrotation Yrotation Zrotation
													JOINT RightHandPinky4
													{
														OFFSET -3.647202 0.000000 0.000000
														CHANNELS 3 Xrotation Yrotation Zrotation
														End Site
														{
															OFFSET 0.000000 0.000000 0.000000
														}
													}
												}
											}
										}
									}
								}
							}
						}
					}
				}
			}
		}
	}
	JOINT LeftUpLeg
	{
		OFFSET 15.427100 -6.655098 0.678600
		CHANNELS 3 Xrotation Yrotation Zrotation
		JOINT LeftLeg
		{
			OFFSET 4.081073 -39.591068 13.024000
			CHANNELS 3 Xrotation Yrotation Zrotation
			JOINT LeftFoot
			{
				OFFSET -4.081074 -37.707932 -15.979700
				CHANNELS 3 Xrotation Yrotation Zrotation
				JOINT LeftToeBase
				{
					OFFSET 5.346399 -15.068900 20.645000
					CHANNELS 3 Xrotation Yrotation Zrotation
					JOINT LeftToe_End
					{
						OFFSET 2.754700 0.931300 11.300900
						CHANNELS 3 Xrotation Yrotation Zrotation
						End Site
						{
							OFFSET 0.000000 0.000000 0.000000
						}
					}
				}
			}
		}
	}
	JOINT RightUpLeg
	{
		OFFSET -15.569500 -6.655098 0.678600
		CHANNELS 3 Xrotation Yrotation Zrotation
		JOINT RightLeg
		{
			OFFSET -4.081825 -39.591045 13.023800
			CHANNELS 3 Xrotation Yrotation Zrotation
			JOINT RightFoot
			{
				OFFSET 4.081824 -37.707954 -15.979600
				CHANNELS 3 Xrotation Yrotation Zrotation
				JOINT RightToeBase
				{
					OFFSET -5.346400 -15.068900 20.645000
					CHANNELS 3 Xrotation Yrotation Zrotation
					JOINT RightToe_End
					{
						OFFSET -2.754700 0.931300 11.300900
						CHANNELS 3 Xrotation Yrotation Zrotation
						End Site
						{
							OFFSET 0.000000 0.000000 0.000000
						}
					}
				}
			}
		}
	}
}
MOTION
Frames: 4
Frame Time: 0.016667
-1.846115 75.557861 -0.577760 10.805461 67.650947 -12.574419 1.871796 -2.340843 0.639022 2.147806 -0.574855 -0.033124 0.000000 0.000000 0.000000 2.136796 -0.620506 -0.146677 -4.452905 -10.379971 0.183234 -3.546768 -51.462340 5.883609 0.000000 -0.000000 0.000000 1.127380 -10.640406 -5.486602 0.000000 0.000000 0.000000 -1.802092 -47.065433 -47.163153 0.000038 -106.321873 0.000052 -14.181008 -27.377410 4.759032 -9.674878 0.269253 1.575500 18.503645 20.929655 -3.451917 -18.184767 -25.645180 1.164920 -0.000000 0.000003 -0.000000 -3.846450 2.878480 -61.548078 2.995008 5.108748 -60.739909 1.046313 3.343009 -34.750910 0.000002 -0.000002 -0.000001 -2.841123 4.594544 -63.952127 4.026905 5.560378 -71.804857 2.498969 4.798406 -55.000317 -0.000001 0.000003 0.000000 -4.005790 6.210680 -77.776846 4.605493 5.717406 -77.688067 1.644147 4.070198 -43.978225 0.000001 0.000002 0.000002 -0.923532 7.377183 -82.600852 4.957414 5.782649 -81.199556 3.978838 5.544412 -71.308049 -0.000004 -0.000001 -0.000001 0.469307 -2.168342 7.105747 0.000000 0.000000 0.000000 -29.988366 -15.739983 41.708390 0.000081 109.347155 -0.000083 14.603129 20.324256 -39.470038 -6.752289 7.209114 -18.581263 15.979760 -27.517654 14.723407 -5.137974 21.103505 -19.354699 -0.000000 -0.000000 -0.000002 -4.026029 10.918939 28.366771 3.771257 -4.572313 79.022270 0.645269 -2.367075 30.493011 0.000000 -0.000000 0.000003 -4.881333 0.185801 47.726111 2.776639 -4.261384 66.161201 0.779562 -2.581389 33.603059 -0.000000 -0.000001 0.000000 -3.940812 -1.274180 51.126391 3.609626 -4.538082 76.987331 0.576877 -2.246992 28.794110 0.000000 0.000002 -0.000001 -2.235441 -3.308457 56.826976 2.160905 -3.932903 57.559302 0.789810 -2.596729 33.829944 0.000000 -0.000000 0.000001 -14.536654 0.229036 25.264926 49.289743 -9.971638 8.548788 -36.058368 7.211594 -15.020809 -9.492826 0.000018 -0.000001 -0.000000 0.000001 0.000001 -35.427826 8.818724 -19.124395 44.681011 10.145760 -5.805510 -15.450497 0.015813 23.928483 -5.169454 0.000011 0.000001 -0.000000 0.000000 0.000000 
-1.407889 78.035522 -0.912680 9.259716 65.906531 -10.972907 1.937328 -2.594089 0.607305 2.196507 -0.669188 -0.093634 0.000000 0.000000 0.000000 2.178839 -0.721578 -0.214627 -4.181044 -10.086968 0.380455 -3.435689 -49.846147 5.967145 -0.000000 -0.000000 -0.000000 1.159396 -10.584909 -4.968928 0.000000 0.000000 0.000000 -3.440712 -46.440474 -48.700547 0.000045 -107.022241 0.000043 -13.940669 -26.498749 3.948674 -9.674877 0.269253 1.575499 18.506555 20.943348 -3.449973 -18.178422 -25.632319 1.172608 0.000000 0.000001 0.000000 -3.845316 2.879134 -61.562558 2.996290 5.109485 -60.754437 1.047178 3.344225 -34.765342 -0.000000 0.000000 -0.000001 -2.840563 4.596742 -63.966374 4.028344 5.560853 -71.819596 2.500181 4.799246 -55.014790 0.000000 0.000001 -0.000001 -4.004833 6.213144 -77.791026 4.606978 5.717720 -77.702964 1.645172 4.071250 -43.992678 -0.000002 0.000000 0.000002 -0.922265 7.378908 -82.615263 4.958897 5.782874 -81.214221 3.980243 5.544900 -71.322570 -0.000002 -0.000001 -0.000000 0.472922 -1.987587 7.167161 0.000000 0.000000 0.000000 -29.704817 -14.959981 41.837808 0.000001 110.239595 0.000010 15.232242 19.900574 -39.661461 -6.752289 7.209114 -18.581258 15.985361 -27.530476 14.722626 -5.136829 21.089403 -19.359379 0.000000 -0.000000 -0.000003 -4.025371 10.917529 28.381014 3.772411 -4.572536 79.036770 0.645865 -2.368086 30.507446 -0.000000 0.000000 -0.000001 -4.881950 0.183413 47.740229 2.777744 -4.261864 66.176016 0.780209 -2.582370 33.617481 0.000000 -0.000001 0.000003 -3.941068 -1.276340 51.140591 3.610797 -4.538353 77.002077 0.577442 -2.248015 28.808539 0.000000 -0.000001 -0.000001 -2.235185 -3.310193 56.841271 2.161903 -3.933540 57.573898 0.790465 -2.597702 33.844397 -0.000001 0.000000 -0.000000 -12.958150 2.596576 24.080315 46.268241 -9.621352 8.917339 -32.744620 6.944174 -15.040056 -10.899854 0.000022 0.000000 -0.000000 0.000002 -0.000000 -34.156157 7.677717 -18.960180 39.785282 9.954968 -5.968302 -11.880113 3.314754 25.014564 -4.656531 0.000026 0.000007 0.000000 0.000001 0.000000 
-0.892380 80.862411 -1.371994 7.992879 63.857180 -9.683267 1.889403 -2.812867 0.578467 2.147876 -0.743418 -0.181092 0.000000 0.000000 0.000000 2.123236 -0.800152 -0.306784 -3.798644 -9.756321 0.643418 -3.007117 -47.953139 6.067485 -0.000000 -0.000000 -0.000000 1.197096 -10.412340 -4.302575 0.000000 0.000000 0.000000 -5.193341 -45.854253 -50.234122 0.000101 -107.756035 0.000099 -13.352814 -25.456286 3.281887 -9.674878 0.269256 1.575498 18.511319 20.965592 -3.446833 -18.168115 -25.611387 1.185110 -0.000000 0.000000 -0.000000 -3.843476 2.880166 -61.586040 2.998383 5.110646 -60.777994 1.048546 3.346186 -34.788817 -0.000000 0.000000 0.000000 -2.839663 4.600292 -63.989488 4.030664 5.561603 -71.843550 2.502159 4.800620 -55.038313 -0.000000 -0.000002 0.000000 -4.003297 6.217155 -77.814037 4.609384 5.718237 -77.727136 1.646837 4.072987 -44.016164 -0.000001 0.000002 0.000002 -0.920214 7.381689 -82.638643 4.961303 5.783248 -81.238140 3.982532 5.545659 -71.346189 0.000000 -0.000002 0.000001 0.488558 -1.683408 7.375538 0.000000 0.000000 0.000000 -29.457206 -13.864260 41.538212 -0.000023 111.001673 0.000040 15.563235 19.335502 -39.736111 -6.752290 7.209113 -18.581258 15.994466 -27.551281 14.721363 -5.134969 21.066492 -19.366940 -0.000000 0.000001 -0.000001 -4.024290 10.915247 28.404134 3.774293 -4.572901 79.060334 0.646836 -2.369730 30.530925 0.000000 -0.000000 -0.000002 -4.882943 0.179547 47.763120 2.779534 -4.262656 66.200140 0.781266 -2.583955 33.640901 0.000000 -0.000000 -0.000000 -3.941477 -1.279843 51.163615 3.612695 -4.538791 77.026045 0.578361 -2.249686 28.831987 0.000001 0.000000 -0.000001 -2.234770 -3.313024 56.864545 2.163535 -3.934570 57.597647 0.791527 -2.599289 33.867858 -0.000000 -0.000001 0.000003 -11.384340 4.919282 22.829760 43.015302 -9.010194 9.095564 -28.543166 6.575286 -14.987190 -12.947231 0.000012 0.000005 -0.000000 0.000001 -0.000000 -32.580265 6.399118 -18.594761 33.994169 9.873773 -6.098174 -7.656558 6.572800 25.668971 -5.002595 0.000005 0.000004 0.000000 0.000000 0.000000 
-0.115204 84.889221 -2.231853 7.119050 60.995304 -8.981846 1.499860 -2.936193 0.655687 1.806341 -0.774962 -0.347969 0.000000 0.000000 0.000000 1.773442 -0.829135 -0.471258 -3.055414 -9.319769 1.116652 -1.591861 -45.242954 6.221003 -0.000000 -0.000000 0.000000 1.239726 -9.854054 -3.184281 0.000000 0.000000 0.000000 -7.337286 -45.581442 -51.880331 0.000130 -108.518380 0.000152 -11.745950 -23.953248 2.992340 -9.674880 0.269260 1.575498 18.520700 21.009549 -3.440648 -18.147785 -25.570060 1.209785 -0.000000 -0.000001 -0.000000 -3.839882 2.882220 -61.632458 3.002530 5.112971 -60.824576 1.051255 3.350078 -34.835201 -0.000001 -0.000003 -0.000001 -2.837893 4.607311 -64.035189 4.035249 5.563106 -71.890869 2.506050 4.803348 -55.084820 -0.000000 0.000000 -0.000000 -4.000254 6.225053 -77.859498 4.614134 5.719271 -77.774900 1.650128 4.076384 -44.062575 0.000000 0.000002 0.000002 -0.916172 7.387176 -82.684849 4.966058 5.783964 -81.285330 3.987029 5.547166 -71.392819 -0.000001 0.000002 0.000001 0.528483 -1.104089 8.063767 0.000000 0.000000 0.000000 -29.166506 -11.793694 40.000282 0.000050 111.367075 -0.000044 15.073753 18.358078 -39.503348 -6.752290 7.209114 -18.581260 16.012472 -27.592434 14.718935 -5.131320 21.021205 -19.381855 0.000000 -0.000001 0.000001 -4.022164 10.910751 28.449823 3.778009 -4.573614 79.106950 0.648753 -2.372978 30.577285 0.000000 0.000000 -0.000000 -4.884906 0.171897 47.808367 2.783073 -4.264212 66.247746 0.783357 -2.587088 33.687258 -0.000000 0.000000 -0.000003 -3.942289 -1.286768 51.209166 3.616440 -4.539651 77.073398 0.580187 -2.252991 28.878340 0.000001 0.000001 -0.000001 -2.233951 -3.318613 56.910512 2.166755 -3.936609 57.644577 0.793633 -2.602417 33.914225 0.000001 -0.000001 -0.000001 -9.755108 7.399157 21.411347 38.788446 -7.786146 8.717622 -21.913935 5.877422 -14.712294 -17.585908 -0.000035 0.000006 -0.000000 0.000001 -0.000000 -30.094018 4.672118 -17.483215 25.215817 9.991534 -6.318601 -1.409524 10.313504 25.508086 -8.997762 -0.000004 0.000005 -0.000000 -0.000000 -0.000000 
